<?xml version="1.0" standalone="no"?>
<!DOCTYPE svg PUBLIC "-//W3C//DTD SVG 20010904//EN"
 "http://www.w3.org/TR/2001/REC-SVG-20010904/DTD/svg10.dtd">
<svg version="1.0" xmlns="http://www.w3.org/2000/svg"
 width="400.000000pt" height="400.000000pt" viewBox="0 0 400.000000 400.000000"
 preserveAspectRatio="xMidYMid meet">
<metadata>
Created by potrace 1.11, written by Peter Selinger 2001-2013
</metadata>
<g transform="translate(0.000000,400.000000) scale(0.100000,-0.100000)"
fill="#000000" stroke="none">
<path d="M110 2776 l0 -314 75 1 74 0 0 66 c0 36 0 85 0 108 l1 41 114 4 c108
3 117 5 157 33 58 41 84 94 83 170 0 97 -54 169 -145 195 -19 6 -107 10 -196
10 l-163 0 0 -314z m321 178 c30 -15 39 -32 39 -78 0 -29 -28 -74 -48 -77 -4
-1 -42 -3 -84 -5 l-78 -3 -1 39 c-1 22 -1 49 -1 60 0 11 0 34 1 51 l1 30 73
-2 c39 -1 84 -8 98 -15z"/>
<path d="M680 3032 l0 -58 65 0 c36 0 66 3 66 6 1 3 2 29 3 58 l2 52 -68 0
-68 0 0 -58z"/>
<path d="M2539 3083 c-1 -5 -1 -57 -1 -116 l0 -109 -21 20 c-35 31 -66 44
-110 44 -58 0 -92 -16 -132 -58 -45 -47 -59 -93 -60 -184 0 -90 28 -156 81
-197 63 -48 181 -41 223 13 l20 25 3 -28 c3 -27 5 -28 66 -31 l62 -2 0 315 0
315 -65 0 c-36 0 -65 -3 -66 -7z m-47 -274 c44 -24 64 -140 33 -199 -26 -50
-83 -68 -132 -42 -50 27 -58 179 -13 227 26 27 75 34 112 14z"/>
<path d="M1429 3036 c-1 -12 -1 -45 0 -73 l0 -53 -34 0 c-34 0 -35 -1 -35 -40
0 -37 2 -40 28 -41 15 -1 30 -1 34 0 4 0 7 -59 7 -132 0 -72 0 -143 0 -155 1
-26 49 -74 78 -79 32 -6 125 -5 131 1 8 8 11 96 3 97 -3 0 -21 2 -39 4 -18 1
-35 5 -38 8 -4 4 -7 175 -5 240 1 13 10 17 44 17 l43 0 0 40 0 40 -43 0 c-34
0 -43 4 -44 18 0 9 -1 42 -2 72 l-2 55 -62 1 c-57 0 -63 -1 -64 -20z"/>
<path d="M1042 2911 c-64 -21 -97 -46 -129 -98 -71 -121 -22 -288 102 -344 83
-38 207 -17 263 44 27 29 54 98 43 110 -12 13 -126 4 -124 -9 1 -7 -9 -24 -22
-38 -47 -50 -135 -23 -151 47 -19 78 0 165 41 187 47 25 107 10 120 -30 7 -21
8 -22 70 -22 68 0 68 0 60 30 -25 101 -155 160 -273 123z"/>
<path d="M1895 2919 c-28 -3 -64 -13 -80 -22 -136 -71 -163 -274 -51 -382 47
-45 99 -65 173 -65 163 0 268 157 213 320 -37 109 -133 165 -255 149z m69 -99
c83 -31 90 -222 9 -263 -30 -15 -79 -13 -101 5 -42 35 -57 151 -27 208 27 53
67 70 119 50z"/>
<path d="M2895 2917 c-53 -12 -104 -52 -121 -93 -8 -18 -14 -37 -14 -41 0 -5
28 -8 62 -8 51 0 63 3 66 17 2 9 18 23 37 32 72 35 148 -41 78 -78 -16 -7 -48
-17 -73 -21 -80 -13 -89 -15 -112 -25 -74 -30 -98 -100 -61 -177 37 -80 179
-98 249 -32 21 19 21 19 32 -5 10 -23 17 -25 72 -25 l61 1 -6 31 c-4 18 -7
100 -9 182 -2 169 -10 191 -76 225 -43 22 -129 29 -185 17z m135 -282 c0 -35
-6 -52 -25 -70 -42 -42 -135 -29 -135 18 0 38 22 56 90 76 36 10 66 19 68 20
1 0 2 -19 2 -44z"/>
<path d="M3450 2909 c-21 -10 -45 -27 -52 -38 -18 -29 -26 -26 -23 9 l3 30
-64 0 -64 0 0 -224 0 -225 64 0 65 0 3 156 c3 153 3 155 29 177 33 28 84 24
101 -8 7 -13 12 -77 12 -171 l1 -150 67 -1 67 -1 -1 147 c0 159 6 182 52 198
31 11 65 0 79 -27 7 -11 11 -83 11 -169 l0 -150 65 -1 c61 -1 65 1 66 22 0 12
0 91 0 176 -1 120 -5 161 -18 188 -42 89 -169 102 -248 25 -31 -31 -34 -32
-40 -13 -17 53 -109 79 -175 50z"/>
<path d="M683 2685 l1 -225 63 1 63 2 1 41 c0 45 0 308 0 369 l-1 37 -64 0
-64 0 1 -225z"/>
<path d="M824 1978 c-3 -4 23 -58 57 -120 60 -107 63 -117 64 -183 l0 -70 43
-2 42 -2 0 71 c0 74 1 77 111 275 10 18 15 34 11 36 -6 4 -53 2 -83 -2 -3 -1
-23 -38 -44 -83 l-37 -82 -22 50 c-52 117 -54 120 -97 120 -22 0 -42 -3 -45
-8z"/>
<path d="M1240 1880 c-78 -14 -126 -79 -116 -159 7 -58 29 -89 78 -111 129
-57 248 61 193 192 -23 57 -89 90 -155 78z m76 -92 c28 -54 -4 -138 -52 -138
-25 0 -54 36 -58 74 -11 92 71 140 110 64z"/>
<path d="M2195 1880 c-100 -22 -146 -118 -100 -213 42 -89 185 -97 242 -14 74
107 -18 254 -142 227z m66 -79 c27 -33 25 -104 -3 -131 -44 -41 -89 -14 -95
57 -8 84 53 129 98 74z"/>
<path d="M2950 1878 c-13 -5 -33 -16 -43 -25 -17 -16 -17 -16 -11 0 4 11 1 17
-7 18 -8 0 -26 3 -41 5 -25 4 -28 1 -29 -23 -1 -31 -1 -220 0 -241 1 -9 13
-12 39 -10 l37 4 2 89 c2 77 5 92 22 107 22 17 56 14 68 -6 4 -6 7 -51 8 -101
l0 -90 40 0 40 0 1 90 c0 96 -8 141 -29 162 -20 21 -69 31 -97 21z"/>
<path d="M1450 1773 c0 -122 9 -149 54 -168 40 -17 100 -5 111 23 6 15 8 14
16 -6 7 -19 15 -23 41 -20 l33 3 0 133 c1 72 -3 133 -7 133 -4 1 -19 2 -33 2
-14 0 -28 -1 -33 -2 -4 0 -7 -42 -8 -92 -1 -77 -4 -94 -19 -105 -24 -18 -40
-18 -59 2 -12 12 -16 37 -16 108 l0 93 -40 -1 -40 -1 0 -102z"/>
<path d="M1759 1860 c-1 -19 -1 -231 0 -247 1 -8 15 -11 39 -10 41 2 38 -8 41
129 1 42 21 67 60 74 22 5 27 12 29 40 2 30 0 34 -23 34 -14 0 -34 -9 -45 -20
-21 -21 -31 -25 -29 -12 4 22 -4 29 -36 28 -24 -1 -35 -6 -36 -16z"/>
<path d="M2376 1870 c-2 -3 14 -59 35 -125 21 -66 39 -125 39 -131 0 -5 18
-11 40 -12 43 -3 36 -16 74 128 15 60 15 60 41 -51 l18 -76 38 -1 38 -2 41
129 c22 70 40 132 40 137 0 5 -17 9 -37 9 -36 0 -37 -1 -55 -60 -10 -33 -18
-70 -18 -82 0 -35 -17 -27 -24 11 -4 19 -13 56 -21 83 -14 46 -17 49 -47 49
-34 -1 -38 -8 -74 -151 -7 -29 -8 -29 -11 -5 -3 14 -13 54 -23 90 -19 65 -20
66 -56 66 -19 0 -37 -3 -38 -6z"/>
<path d="M810 1180 c0 -145 3 -190 13 -191 20 -2 62 3 67 7 2 3 3 40 2 84 -2
68 0 82 18 100 25 25 56 26 70 1 5 -11 10 -58 10 -105 0 -75 2 -86 18 -87 9 0
27 -2 40 -3 22 -3 22 -1 22 111 0 114 0 115 -30 145 -27 27 -36 30 -71 25 -22
-3 -50 -14 -61 -24 -20 -18 -20 -17 -18 12 1 17 2 49 1 73 l-1 42 -40 0 -40 0
0 -190z"/>
<path d="M2365 1180 l0 -190 40 0 40 0 1 190 0 190 -41 0 -40 0 0 -190z"/>
<path d="M2502 1180 l-1 -190 40 0 c28 0 39 4 39 15 0 13 4 12 22 -5 26 -24
77 -26 117 -5 75 38 82 187 11 250 -29 26 -100 27 -128 2 -21 -19 -21 -19 -20
35 1 91 2 88 -41 88 l-39 0 0 -190z m168 12 c13 -10 23 -33 27 -59 5 -35 2
-45 -20 -67 -14 -14 -31 -26 -37 -26 -23 0 -60 49 -60 79 0 53 20 82 61 90 4
0 17 -7 29 -17z"/>
<path d="M1459 1328 c-1 -13 0 -33 1 -45 1 -15 -5 -22 -22 -25 -33 -4 -35 -48
-2 -48 22 0 22 -3 20 -77 -3 -119 5 -135 77 -147 41 -7 57 3 57 35 0 24 -4 29
-24 29 -29 0 -32 8 -31 90 1 63 1 65 28 68 21 3 27 9 27 27 0 18 -6 24 -27 27
-23 2 -28 8 -29 33 -2 54 -3 55 -39 55 -29 0 -35 -4 -36 -22z"/>
<path d="M620 1263 c-8 -3 -23 -12 -32 -21 -16 -14 -18 -13 -18 1 0 13 -9 17
-40 17 l-40 0 0 -180 c0 -180 0 -180 23 -181 26 -2 50 1 56 7 2 2 3 26 2 54
-1 51 -1 51 21 35 26 -17 77 -20 110 -4 13 5 33 24 45 41 18 26 22 43 19 100
-2 61 -5 72 -32 99 -30 29 -83 45 -114 32z m56 -88 c33 -50 3 -135 -48 -135
-47 0 -74 86 -42 135 22 34 68 34 90 0z"/>
<path d="M1196 1255 c-21 -7 -43 -20 -48 -27 -43 -64 -49 -122 -20 -177 49
-91 190 -94 249 -5 44 67 10 180 -63 210 -41 17 -68 17 -118 -1z m99 -65 c12
-13 18 -35 18 -65 0 -54 -23 -85 -64 -85 -61 0 -81 125 -25 162 20 14 53 8 71
-12z"/>
<path d="M1695 1251 c-51 -26 -78 -70 -77 -127 2 -86 58 -144 140 -144 86 0
144 56 144 139 0 86 -43 136 -124 147 -32 4 -54 0 -83 -15z m105 -61 c14 -14
20 -33 20 -63 0 -55 -22 -87 -60 -87 -38 0 -60 32 -60 87 0 48 26 83 60 83 11
0 29 -9 40 -20z"/>
<path d="M2123 1253 c-29 -13 -60 -59 -49 -71 12 -11 69 -2 80 13 18 25 70 16
74 -12 3 -23 -5 -27 -78 -38 -57 -9 -90 -38 -90 -81 0 -46 27 -74 77 -81 31
-4 50 -1 69 12 16 11 29 13 33 7 5 -9 40 -16 66 -13 14 1 9 206 -6 232 -23 43
-118 61 -176 32z m104 -190 c-18 -40 -87 -39 -87 2 0 18 9 26 43 38 38 12 43
12 48 -2 3 -9 2 -26 -4 -38z"/>
<path d="M3243 1260 c-12 -5 -26 -17 -32 -27 -10 -16 -10 -16 -11 5 0 19 -5
22 -38 22 l-37 0 0 -135 -1 -135 42 0 41 0 -1 86 c-2 94 10 124 48 124 31 0
36 -15 36 -121 l0 -89 43 0 42 0 -3 68 c-5 97 4 131 34 138 44 11 54 -9 54
-111 0 -50 2 -94 5 -96 2 -3 21 -3 41 -1 l36 4 -4 113 c-3 127 -14 150 -73
161 -34 6 -95 -17 -95 -37 0 -6 -14 1 -31 15 -31 27 -58 31 -96 16z"/>
<path d="M2819 1238 c-1 -28 -1 -167 0 -189 1 -9 13 -28 27 -43 34 -34 89 -35
130 -4 21 17 26 18 22 6 -5 -12 1 -17 28 -20 20 -2 38 0 41 6 5 8 7 102 4 231
-1 34 -2 35 -41 35 l-40 0 0 -93 c0 -101 -7 -117 -51 -117 -35 0 -39 14 -41
124 l-1 86 -38 0 c-34 0 -39 -3 -40 -22z"/>
</g>
</svg>
